<svg id="ACCIDENT" xmlns="http://www.w3.org/2000/svg" xmlns:xlink="http://www.w3.org/1999/xlink" viewBox="0 0 879.03 879.56"><defs><style>.cls-1{fill:#ea0079}.cls-2{fill:url(#New_Gradient_Swatch_2)}.cls-3{fill:url(#New_Gradient_Swatch_2-2)}.cls-4{fill:#efefef}</style><linearGradient id="New_Gradient_Swatch_2" x1="2431.44" y1="1333.57" x2="3086.6" y2="1333.57" gradientTransform="matrix(.71 .71 -1.48 1.48 2648.9 -2466.43)" gradientUnits="userSpaceOnUse"><stop offset=".5" stop-color="#d10060"/><stop offset="1" stop-color="#ea0079" stop-opacity=".5"/></linearGradient><linearGradient id="New_Gradient_Swatch_2-2" x1="2433.79" y1="1668.43" x2="2953.85" y2="1668.43" gradientTransform="matrix(.70957 .70463 -1.12741 1.13531 2525.179 -2142.475)" xlink:href="#New_Gradient_Swatch_2"/></defs><title>claim-icon-personal-accident</title><circle class="cls-1" cx="439.51" cy="439.51" r="439.51" id="Layer_13" data-name="Layer 13"/><path class="cls-2" d="M2890.21 1546.6l-316.5-316.5-126 31.84h-46.43a42 42 0 0 0-10 .49c-3.2.55-5.22.89-7.53 2.33a16 16 0 0 0-5.75 6.5 18.3 18.3 0 0 0-2 8.8l-46.81 11.83.55 27.65-4.32 7.2 447.71 447.71c2.33-2.26 5.61-5.52 9.42-9.54 16.55-17.48 27-32.4 35.15-44.23a470.76 470.76 0 0 0 32-53.33 440.62 440.62 0 0 0 21-48 427.68 427.68 0 0 0 19.51-72.75z" transform="translate(-2018.02 -1029.49)" id="Layer_14" data-name="Layer 14"/><path class="cls-3" d="M2567.35 1464.56l151.4-101.81L2892 1536a492.51 492.51 0 0 1-15.47 64.53 428.42 428.42 0 0 1-26 66A420.17 420.17 0 0 1 2802 1742c-27.5 34.25-53.36 55.63-68.5 68-15.72 12.85-38.33 31.13-72 49-37.09 19.69-68 28.49-86 33.5-14.1 3.93-57.3 15.7-105.5 16.5-26.91.45-55.32-2.53-58.46-2.87a498.73 498.73 0 0 1-19.94-2.54l-191.85-191.85 150.41-101.15c-.81-1.21-2-3-3.3-5.22A125.1 125.1 0 0 1 2332 1567a143.72 143.72 0 0 1 .5-61.5 129.34 129.34 0 0 1 27.5-53 133.15 133.15 0 0 1 107.5-45 130.45 130.45 0 0 1 53 15 131.8 131.8 0 0 1 46.85 42.06z" transform="translate(-2018.02 -1029.49)"/><path class="cls-4" d="M2737.2 1410.24c0-38.88-27.36-66.24-66.24-66.24H2246.2c-38.88 0-66.24 27.36-66.24 66.24v253.42c0 5.76 0 11.52 1.44 15.84 7.2 30.24 31.68 50.4 64.8 50.4h436.29c33.12-5.76 56.16-31.68 56.16-66.24-1.45-83.51-1.45-168.46-1.45-253.42zm-277.9 259.18c-72 0-131-59-131-131s59-131 131-131 131 59 131 131-59 131.01-131 131.01zm-133.91-342.69h50.4V1285c0-17.28 5.76-23 23-23h123.83c11.52 0 18.72 7.2 20.16 18.72v44.64h50.4v-50.4a67.46 67.46 0 0 0-64.8-64.8h-135.31c-27.36 0-53.28 20.16-60.48 47.52-4.32 13-4.32 27.36-2.88 40.32v21.6c1.44-.07-4.32 7.13-4.32 7.13z" transform="translate(-2018.02 -1029.49)"/><path class="cls-4" d="M2480.9 1473.6h-43.2v43.2h-41.76v43.2h43.2v41.76h43.2v-43.2h41.76v-43.2h-41.76c-1.44-12.96-1.44-27.36-1.44-41.76z" transform="translate(-2018.02 -1029.49)"/></svg>