<svg xmlns="http://www.w3.org/2000/svg" width="190" height="190" viewBox="0 0 190 190"><path fill="#71c9c4" d="M95 190c-52.4 0-95-42.6-95-95S42.6 0 95 0s95 42.6 95 95-42.6 95-95 95zM95 4C44.8 4 4 44.8 4 95s40.8 91 91 91 91-40.8 91-91S145.2 4 95 4z"/><g fill="#71c9c4"><path d="M74.2 50h41.7c.7 0 1.3-.3 1.7-.9.4-.5.5-1.2.3-1.9l-4.2-12.5c-.3-.9-1.1-1.4-2-1.4h-6.5c-1-4.8-5.2-8.3-10.2-8.3-5 0-9.2 3.6-10.2 8.3h-6.5c-.9 0-1.7.6-2 1.4l-4.2 12.5c-.2.6-.1 1.3.3 1.9.5.6 1.1.9 1.8.9zm5.6-12.5h6.8c1.2 0 2.1-.9 2.1-2.1 0-3.4 2.8-6.3 6.3-6.3 3.4 0 6.3 2.8 6.3 6.3 0 1.2.9 2.1 2.1 2.1h6.8l2.8 8.3H77.1l2.7-8.3zM61.7 50c-1.2 0-2.1.9-2.1 2.1v91.7c0 1.1.9 2.1 2.1 2.1h66.7c1.1 0 2.1-.9 2.1-2.1V52.1c0-1.2-.9-2.1-2.1-2.1-1.1 0-2.1.9-2.1 2.1v89.6H63.7V52.1c0-1.2-.9-2.1-2-2.1zM93.5 33.9c-.4.4-.6.9-.6 1.5s.2 1.1.6 1.5c.4.4.9.6 1.5.6s1.1-.2 1.5-.6c.4-.4.6-.9.6-1.5s-.2-1.1-.6-1.5c-.8-.7-2.2-.7-3 0zM128.3 37.5h-4.2c-1.1 0-2.1.9-2.1 2.1 0 1.2.9 2.1 2.1 2.1h4.2c3.4 0 6.3 2.8 6.3 6.3v100c0 3.4-2.8 6.3-6.3 6.3H61.7c-3.4 0-6.3-2.8-6.3-6.3V48c0-3.4 2.8-6.3 6.3-6.3h4.2c1.2 0 2.1-.9 2.1-2.1 0-1.2-.9-2.1-2.1-2.1h-4.2c-5.7 0-10.4 4.7-10.4 10.4v100c0 5.7 4.7 10.4 10.4 10.4h66.7c5.7 0 10.4-4.7 10.4-10.4v-100c0-5.7-4.7-10.4-10.5-10.4zM74 105.5c0 1.2.9 2.1 2.1 2.1h36.7c1.1 0 2.1-.9 2.1-2.1 0-1.2-.9-2.1-2.1-2.1H76.1c-1.1.1-2.1 1-2.1 2.1zM76.1 120.1h25.8c1.2 0 2.1-.9 2.1-2.1 0-1.2-.9-2.1-2.1-2.1H76.1c-1.2 0-2.1.9-2.1 2.1 0 1.2 1 2.1 2.1 2.1zM76.1 132.6h31.7c1.1 0 2.1-.9 2.1-2.1 0-1.2-.9-2.1-2.1-2.1H76.1c-1.2 0-2.1.9-2.1 2.1 0 1.2 1 2.1 2.1 2.1zM97.8 65.8h-4.2c-1.2 0-2.1.9-2.1 2.1v6.3h-6.3c-1.2 0-2.1.9-2.1 2.1v4.2c0 1.2.9 2.1 2.1 2.1h6.3v6.3c0 1.2.9 2.1 2.1 2.1h4.2c1.1 0 2.1-.9 2.1-2.1v-6.3h6.3c1.1 0 2.1-.9 2.1-2.1v-4.2c0-1.2-.9-2.1-2.1-2.1h-6.3v-6.3c0-1.1-1-2.1-2.1-2.1z"/></g></svg>